<svg width="145" height="147" viewBox="0 0 145 147" fill="none" xmlns="http://www.w3.org/2000/svg">
<path d="M129.923 78.0955C130.194 69.137 128.252 60.25 124.268 52.2216C120.283 44.1933 114.381 37.2714 107.083 32.0691C99.7845 26.8668 91.3159 23.5447 82.4271 22.397C73.5383 21.2494 64.5036 22.3116 56.1234 25.4896C47.7432 28.6676 40.2761 33.8633 34.3835 40.6165C28.4909 47.3697 24.3547 55.4718 22.3413 64.2053C20.328 72.9388 20.4995 82.0341 22.8408 90.6855C25.1821 99.3368 29.6209 107.277 35.764 113.803L75.4484 76.4484L129.923 78.0955Z" fill="url(#paint0_linear)"/>
<defs>
<linearGradient id="paint0_linear" x1="30.2418" y1="46.008" x2="120.655" y2="106.889" gradientUnits="userSpaceOnUse">
<stop stop-color="#FBA92F"/>
<stop offset="1" stop-color="#FD390E"/>
</linearGradient>
</defs>
</svg>
